<svg width="24" height="24" viewBox="0 0 24 24" fill="none" xmlns="http://www.w3.org/2000/svg">
              <g clip-path="url(#clip0_2190_4666)">
              <path fill-rule="evenodd" clip-rule="evenodd" d="M7.2164 5.92399C7.36456 4.89743 7.8404 3.93892 8.58246 3.19686C9.48886 2.29046 10.7182 1.78125 12 1.78125C13.2819 1.78125 14.5112 2.29046 15.4176 3.19686C16.1597 3.93892 16.6355 4.89743 16.7837 5.92399H21.8535C22.0666 5.92532 22.2771 5.97145 22.4712 6.05942C22.6653 6.14739 22.8387 6.27522 22.9802 6.4346C23.1217 6.59399 23.228 6.78135 23.2923 6.98453C23.3566 7.18738 23.3774 7.40147 23.3536 7.61291L21.882 20.8782C21.8361 21.247 21.6574 21.5865 21.3795 21.8333C21.1015 22.08 20.7431 22.217 20.3715 22.2187L20.3682 21.5283V22.2188H3.63157L3.62833 22.2187C3.25665 22.217 2.89834 22.08 2.62035 21.8333C2.34236 21.5865 2.16373 21.247 2.11785 20.8782L2.11672 20.8691L0.646281 7.6139C0.622464 7.40243 0.643241 7.18741 0.70747 6.98453C0.77179 6.78135 0.878143 6.59398 1.01962 6.4346C1.16109 6.27522 1.33452 6.14739 1.52863 6.05942C1.72274 5.97145 1.93319 5.92532 2.1463 5.92401L2.15054 5.92399H7.2164ZM9.55891 4.17331C10.2063 3.52588 11.0844 3.16216 12 3.16216C12.9156 3.16216 13.7937 3.52588 14.4412 4.17331C14.9234 4.65552 15.2482 5.26568 15.3826 5.92399H8.6175C8.75188 5.26568 9.07671 4.65552 9.55891 4.17331ZM7.16685 7.3049V9.92863C7.16685 10.31 7.47598 10.6191 7.8573 10.6191C8.23863 10.6191 8.54776 10.31 8.54776 9.92863V7.3049H15.4523V9.92863C15.4523 10.31 15.7614 10.6191 16.1428 10.6191C16.5241 10.6191 16.8332 10.31 16.8332 9.92863V7.3049H21.8462C21.8652 7.30519 21.8839 7.30937 21.9012 7.3172C21.9188 7.3252 21.9346 7.33682 21.9474 7.35131C21.9603 7.3658 21.97 7.38283 21.9758 7.4013C21.9817 7.41978 21.9836 7.43927 21.9814 7.45852L21.9812 7.46008L20.5112 20.7104C20.5063 20.7452 20.4891 20.7771 20.4628 20.8004C20.4361 20.8242 20.4017 20.8375 20.3659 20.8378H3.63388C3.59813 20.8375 3.56372 20.8242 3.53697 20.8004C3.51067 20.7771 3.49353 20.7452 3.48856 20.7104L2.0186 7.46008L2.01842 7.45852C2.01624 7.43927 2.01814 7.41977 2.02399 7.4013C2.02983 7.38283 2.0395 7.3658 2.05236 7.35131C2.06522 7.33682 2.08099 7.3252 2.09864 7.3172C2.11591 7.30937 2.1346 7.30519 2.15356 7.3049H7.16685Z" fill="#1A181E"/>
              </g>
              <defs>
              <clipPath id="clip0_2190_4666">
              <rect width="24" height="24" fill="white"/>
              </clipPath>
              </defs>
            </svg>