<svg width="25" height="24" viewBox="0 0 25 24" fill="none" xmlns="http://www.w3.org/2000/svg">
              <g clip-path="url(#clip0_1136_8074)">
              <path fill-rule="evenodd" clip-rule="evenodd" d="M12.5 9C10.8431 9 9.5 10.3431 9.5 12C9.5 13.6569 10.8431 15 12.5 15C14.1569 15 15.5 13.6569 15.5 12C15.5 10.3431 14.1569 9 12.5 9ZM8 12C8 9.51472 10.0147 7.5 12.5 7.5C14.9853 7.5 17 9.51472 17 12C17 14.4853 14.9853 16.5 12.5 16.5C10.0147 16.5 8 14.4853 8 12Z" fill="#1A181E"/>
              <path fill-rule="evenodd" clip-rule="evenodd" d="M8.375 4.125C6.30393 4.125 4.625 5.80393 4.625 7.875V16.125C4.625 18.1961 6.30393 19.875 8.375 19.875H16.625C18.6961 19.875 20.375 18.1961 20.375 16.125V7.875C20.375 5.80393 18.6961 4.125 16.625 4.125H8.375ZM3.125 7.875C3.125 4.9755 5.4755 2.625 8.375 2.625H16.625C19.5245 2.625 21.875 4.9755 21.875 7.875V16.125C21.875 19.0245 19.5245 21.375 16.625 21.375H8.375C5.4755 21.375 3.125 19.0245 3.125 16.125V7.875Z" fill="#1A181E"/>
              <path d="M17.375 8.25C17.9963 8.25 18.5 7.74632 18.5 7.125C18.5 6.50368 17.9963 6 17.375 6C16.7537 6 16.25 6.50368 16.25 7.125C16.25 7.74632 16.7537 8.25 17.375 8.25Z" fill="#1A181E"/>
              </g>
              <defs>
              <clipPath id="clip0_1136_8074">
              <rect width="24" height="24" fill="white" transform="translate(0.5)"/>
              </clipPath>
              </defs>
            </svg>