<svg width="62" height="38" viewBox="0 0 62 38" fill="none" xmlns="http://www.w3.org/2000/svg">
        <path d="M59 1H3C1.89543 1 1 1.89543 1 3V35C1 36.1046 1.89543 37 3 37H59C60.1046 37 61 36.1046 61 35V3C61 1.89543 60.1046 1 59 1Z" stroke="#E5E5E5"/>
        <path d="M53.179 13.9658L55.9998 19.567L50.0698 25.1709L53.179 13.9658Z" fill="#008C44"/>
        <path d="M51.2256 13.9658L54.0423 19.567L48.1162 25.1709L51.2256 13.9658Z" fill="#F47920"/>
        <path d="M6 23.1328L8.81252 13H13.309C14.7143 13 15.653 13.2224 16.1306 13.6809C16.6048 14.1356 16.6961 14.8779 16.4103 15.9213C16.2374 16.5359 15.9747 17.0518 15.6137 17.4594C15.2557 17.8677 14.7835 18.1906 14.2021 18.4281C14.6954 18.5467 15.0092 18.7822 15.1499 19.1353C15.2899 19.4884 15.2737 20.0033 15.1037 20.6783L14.7617 22.0936L14.7607 22.132C14.662 22.5283 14.6912 22.7404 14.852 22.7576L14.7484 23.1328H11.7066C11.7169 22.8944 11.7358 22.6812 11.7559 22.5022C11.778 22.3191 11.8053 22.1771 11.8323 22.0797L12.1159 21.0677C12.2588 20.5415 12.2676 20.1744 12.135 19.963C12.0012 19.746 11.7017 19.6391 11.2287 19.6391H9.9504L8.97556 23.1328H6ZM10.5829 17.3558H11.9521C12.4319 17.3558 12.786 17.2873 13.0043 17.1456C13.2236 17.0027 13.3864 16.7613 13.4819 16.4121C13.5808 16.0571 13.5565 15.8096 13.4146 15.6689C13.2729 15.5259 12.9338 15.4565 12.4007 15.4565H11.1101L10.5829 17.3558Z" fill="#1B3281"/>
        <path d="M24.7584 15.6554L22.685 23.1326H20.1654L20.4751 22.0372C20.0316 22.4728 19.5778 22.8036 19.1204 23.015C18.6666 23.2301 18.1878 23.3359 17.6837 23.3359C17.267 23.3359 16.9092 23.2603 16.6212 23.1103C16.3297 22.9607 16.1127 22.7334 15.9666 22.4335C15.8369 22.1711 15.7804 21.8469 15.8025 21.4597C15.8259 21.0786 15.9604 20.4358 16.2099 19.5356L17.2844 15.6554H20.0405L18.9681 19.5174C18.8115 20.0827 18.7742 20.48 18.8505 20.6963C18.9301 20.9146 19.1425 21.0273 19.4872 21.0273C19.8344 21.0273 20.1264 20.9016 20.3675 20.645C20.6121 20.3906 20.8009 20.0112 20.9429 19.5064L22.0063 15.6554H24.7584Z" fill="#1B3281"/>
        <path d="M23.7588 23.1328L26.5684 13H30.4333C31.2861 13 31.9461 13.0503 32.4169 13.1608C32.8866 13.2666 33.2549 13.4385 33.5287 13.6809C33.8717 13.9979 34.0819 14.3903 34.1684 14.861C34.2496 15.3317 34.2015 15.88 34.0235 16.5239C33.7087 17.6566 33.1569 18.5246 32.3707 19.1311C31.582 19.7297 30.6062 20.0305 29.4415 20.0305H27.6328L26.7736 23.1328H23.7588ZM28.3177 17.5559H29.2895C29.9179 17.5559 30.3596 17.4783 30.6185 17.3285C30.8689 17.1768 31.0469 16.9072 31.1555 16.5239C31.264 16.1354 31.236 15.8638 31.072 15.7121C30.9141 15.5611 30.5107 15.4847 29.8651 15.4847H28.8952L28.3177 17.5559Z" fill="#1B3281"/>
        <path d="M37.2654 23.1327L37.2934 22.4226C36.849 22.7553 36.3989 23.0067 35.9463 23.1639C35.4958 23.324 35.0159 23.4053 34.502 23.4053C33.7214 23.4053 33.177 23.1931 32.8622 22.7826C32.5514 22.3713 32.5003 21.7807 32.7125 21.0274C32.9155 20.2839 33.2767 19.7365 33.7978 19.3866C34.3159 19.0325 35.1812 18.7791 36.3952 18.6171C36.5492 18.592 36.7554 18.5719 37.0137 18.5407C37.9112 18.4368 38.4151 18.1977 38.5236 17.8075C38.5801 17.5939 38.5457 17.4362 38.4131 17.3395C38.2852 17.239 38.046 17.1897 37.7008 17.1897C37.4142 17.1897 37.1837 17.2491 36.9946 17.3726C36.8058 17.4974 36.6648 17.6796 36.5693 17.9359H33.8822C34.1249 17.0942 34.6206 16.4582 35.3649 16.0329C36.1064 15.6002 37.0842 15.392 38.2953 15.392C38.8647 15.392 39.3747 15.4453 39.8255 15.561C40.2771 15.6717 40.6071 15.8296 40.8212 16.0206C41.0847 16.2591 41.2406 16.5309 41.2851 16.8314C41.3364 17.1312 41.2802 17.561 41.123 18.1233L39.9672 22.292C39.9301 22.4285 39.923 22.5503 39.9431 22.661C39.9672 22.7666 40.0134 22.857 40.0949 22.9215L40.0328 23.1327H37.2654ZM37.9353 19.794C37.6426 19.9116 37.2622 20.0243 36.7896 20.1481C36.0473 20.3472 35.6296 20.6129 35.5392 20.9417C35.4766 21.1531 35.5019 21.3159 35.6053 21.4397C35.7072 21.5573 35.8842 21.6167 36.1337 21.6167C36.5911 21.6167 36.9585 21.501 37.2323 21.2727C37.5068 21.0414 37.7121 20.6782 37.8557 20.1773C37.8808 20.0707 37.9029 19.9941 37.9171 19.9369L37.9353 19.794Z" fill="#1B3281"/>
        <path d="M40.0537 26.0795L40.6654 23.8664H41.4541C41.7176 23.8664 41.9248 23.8143 42.0716 23.7195C42.2207 23.6211 42.3221 23.4551 42.3805 23.2316C42.4098 23.1332 42.4277 23.0295 42.44 22.9119C42.4478 22.7872 42.4478 22.6553 42.44 22.5026L42.0191 15.6559H44.8088L44.7656 20.1927L47.2009 15.6559H49.7951L45.4897 23.0971C45.001 23.9287 44.646 24.5001 44.4206 24.812C44.1981 25.1199 43.9869 25.3593 43.7819 25.5214C43.5162 25.7455 43.2196 25.9044 42.8994 25.997C42.5784 26.0915 42.0898 26.1387 41.433 26.1387C41.2439 26.1387 41.0263 26.135 40.7911 26.1227C40.5576 26.1136 40.3083 26.0996 40.0537 26.0795" fill="#1B3281"/>
      </svg>