<svg width="24" height="24" viewBox="0 0 24 24" fill="none" xmlns="http://www.w3.org/2000/svg">
                <path fill-rule="evenodd" clip-rule="evenodd" d="M11.0724 5.15966C7.80675 5.15966 5.15942 7.80699 5.15942 11.0726C5.15942 14.3383 7.80675 16.9856 11.0724 16.9856C14.338 16.9856 16.9854 14.3383 16.9854 11.0726C16.9854 7.80699 14.338 5.15966 11.0724 5.15966ZM4 11.0726C4 7.16666 7.16642 4.00024 11.0724 4.00024C14.9784 4.00024 18.1448 7.16666 18.1448 11.0726C18.1448 14.9786 14.9784 18.145 11.0724 18.145C7.16642 18.145 4 14.9786 4 11.0726Z" fill="#999999"/>
                <path fill-rule="evenodd" clip-rule="evenodd" d="M15.2538 15.2535C15.4802 15.0271 15.8472 15.0271 16.0736 15.2535L19.8301 19.01C20.0565 19.2364 20.0565 19.6035 19.8301 19.8299C19.6037 20.0562 19.2367 20.0562 19.0103 19.8299L15.2538 16.0734C15.0274 15.847 15.0274 15.4799 15.2538 15.2535Z" fill="#999999"/>
              </svg>