<svg id="shop-svg-mobile-nav" width="24" height="25" viewBox="0 0 24 25" fill="none" xmlns="http://www.w3.org/2000/svg">
          <g clip-path="url(#clip0_1053_1791)">
            <path d="M4.50006 13.6006V20.0131C4.50006 20.212 4.57908 20.4028 4.71973 20.5434C4.86038 20.6841 5.05115 20.7631 5.25006 20.7631H18.7501C18.949 20.7631 19.1397 20.6841 19.2804 20.5434C19.421 20.4028 19.5001 20.212 19.5001 20.0131V13.6006" stroke="#808080" stroke-width="1.25" stroke-linecap="round" stroke-linejoin="round"/>
            <path d="M5.0625 4.2627H18.9375C19.1002 4.26403 19.2582 4.3176 19.3881 4.41549C19.5181 4.51339 19.6132 4.65043 19.6594 4.80645L21 9.5127H3L4.34062 4.80645C4.38682 4.65043 4.4819 4.51339 4.61187 4.41549C4.74183 4.3176 4.8998 4.26403 5.0625 4.2627V4.2627Z" stroke="#808080" stroke-width="1.25" stroke-linecap="round" stroke-linejoin="round"/>
            <path d="M9 9.5127V11.0127C9 11.8083 8.68393 12.5714 8.12132 13.134C7.55871 13.6966 6.79565 14.0127 6 14.0127C5.20435 14.0127 4.44129 13.6966 3.87868 13.134C3.31607 12.5714 3 11.8083 3 11.0127V9.5127" stroke="#808080" stroke-width="1.25" stroke-linecap="round" stroke-linejoin="round"/>
            <path d="M15 9.5127V11.0127C15 11.8083 14.6839 12.5714 14.1213 13.134C13.5587 13.6966 12.7956 14.0127 12 14.0127C11.2044 14.0127 10.4413 13.6966 9.87868 13.134C9.31607 12.5714 9 11.8083 9 11.0127V9.5127" stroke="#808080" stroke-width="1.25" stroke-linecap="round" stroke-linejoin="round"/>
            <path d="M20.9999 9.5127V11.0127C20.9999 11.8083 20.6839 12.5714 20.1213 13.134C19.5586 13.6966 18.7956 14.0127 17.9999 14.0127C17.2043 14.0127 16.4412 13.6966 15.8786 13.134C15.316 12.5714 14.9999 11.8083 14.9999 11.0127V9.5127" stroke="#808080" stroke-width="1.25" stroke-linecap="round" stroke-linejoin="round"/>
          </g>
          <defs>
            <clipPath id="clip0_1053_1791">
              <rect width="24" height="24" fill="white" transform="translate(0 0.512695)"/>
            </clipPath>
          </defs>
        </svg>